# xmcd
# 
# Track frame offsets:
#     150
#     17927
#     37402
#     50595
#     61025
#     75395
#     94475
#     120495
#     137820
#     154292
#     169737
#     195585
#     217052
#     232280
#     246395
# 
# Disc length: 3497
# 
# Revision: 4
# Processed by: cddbd v1.5.2PL0 Copyright (c) Steve Scherf et al.
# Submitted via: fre:ac v1.0.31
# 
DISCID=df0da70f
DTITLE=Rock Nacional - La Colección - 30 Años de Rock Nacional - Vol. 6
DYEAR=0
DGENRE=Rock
TTITLE0=Illya Kuryaki and The Valderramas
TTITLE1=Charly García
TTITLE2=Virus
TTITLE3=Los Twist
TTITLE4=Dulces 16
TTITLE5=La Mizrahi Blue Band
TTITLE6=Pappo's Blues
TTITLE7=Ratones Paranoicos
TTITLE8=Vox Dei
TTITLE9=Alambre y La Doble Nelson
TTITLE10=Seru Giran
TTITLE11=Nito Mestre
TTITLE12=Miguel Mateos
TTITLE13=Oveja Negra
TTITLE14=Viudas e Hijas del Roque Enroll
EXTD=ID3G: 17
EXTT0=
EXTT1=
EXTT2=
EXTT3=
EXTT4=
EXTT5=
EXTT6=
EXTT7=
EXTT8=
EXTT9=
EXTT10=
EXTT11=
EXTT12=
EXTT13=
EXTT14=
PLAYORDER=
